# xmcd
#
# Track frame offsets:
#	150
#	16036
#	32026
#	48001
#	63901
#	78301
#	96540
#	113778
#	129678
#	151531
#	167417
#	183407
#	199382
#	215282
#	229682
#	247921
#	265159
#	281059
#
# Disc length: 4038 seconds
#
# Revision: 1
# Processed by: cddbd v1.5.1PL2 Copyright (c) Steve Scherf et al.
# Submitted via: audiograbber 1.83.01
#
DISCID=e70fc412
DTITLE=Various Artist - Phn0203
DYEAR=1900
DGENRE=Country
TTITLE0=Stenier, Tommy Shane - What If She's An Angel
TTITLE1=McGraw, Tim - Cowboy In Me, The
TTITLE2=Yearwood, Trisha - Inside Out
TTITLE3=Cochran, Tammy - I Cry
TTITLE4=Wright, Chely - Jezebel
TTITLE5=Cagle, Chris - I Breath In, I Breath Out
TTITLE6=Flatts, Rascal - I'm Movin' On
TTITLE7=Vassar,phil - That's When I Love You
TTITLE8=Carlisle, Bob - Christmas Shoes, The
TTITLE9=Stenier, Tommy Shane - What If She's An Angel (Vocals)
TTITLE10=McGraw, Tim - Cowboy In Me, The (Vocals)
TTITLE11=Yearwood, Trisha - Inside Out (Vocals)
TTITLE12=Cochran, Tammy - I Cry (Vocals)
TTITLE13=Wright, Chely - Jezebel (Vocals)
TTITLE14=Cagle, Chris - I Breath In, I Breath Out (Vocals)
TTITLE15=Flatts, Rascal - I'm Movin' On (Vocals)
TTITLE16=Vassar,phil - That's When I Love You (Vocals)
TTITLE17=Carlisle, Bob - Christmas Shoes, The (Vocals)
EXTD=
EXTT0=
EXTT1=
EXTT2=
EXTT3=
EXTT4=
EXTT5=
EXTT6=
EXTT7=
EXTT8=
EXTT9=
EXTT10=
EXTT11=
EXTT12=
EXTT13=
EXTT14=
EXTT15=
EXTT16=
EXTT17=
PLAYORDER=
